<?xml version='1.0' encoding='utf-8'?>
<svg xmlns="http://www.w3.org/2000/svg" width="839px" height="598px" version="1.1" viewBox="104 728 839 598"> <g fill="#e1912e"> <path d="m950.28 720.09-852.17 4.0318c-0.15434 7.9e-4 -0.30205 0.0628-0.41054 0.17248-0.10864 0.10967-0.16922 0.25777-0.1685 0.41227l2.8825 609.12c0.00159 0.3205 0.26193 0.5796 0.58226 0.5796h0.00235l852.17-4.0311c0.15415 0 0.3022-0.0621 0.4106-0.1716 0.1089-0.1102 0.1692-0.2584 0.16836-0.4124l-2.8828-609.13c-0.0017-0.3203-0.2617-0.5788-0.5813-0.5788z"/> </g> <g fill="#874f1e"> <path d="m952.87 1145-853.34 3.6881 0.87625 185.19c0.00159 0.3204 0.26193 0.5793 0.58226 0.5793h0.00235l852.17-4.0311c0.15415 0 0.3022-0.0619 0.4106-0.1716 0.1089-0.1102 0.1692-0.2581 0.16836-0.412l-0.87439-184.84z"/> </g> <g> <path d="m516.95 1213.9v0.0014 0.0012 0.0013 0.0012 0.0013l-0.1626-2.4145-39.918 121.13 51.232-0.2424 10.186-97.397c27.41-2.6412 36.994-7.0249 36.994-7.0249 8.2774-3.7856-1.0783-9.4017-1.0783-9.4017l-57.253-4.6602v0.0014-0.0014 0.0014-0.0014 0.0014z"/> <path d="m713.41 1195.6v0.0013c-3.1294-1.7508-6.7819-1.2287-6.7819-1.2287-21.37 3.0546-26.93 6.1157-30.244 6.724l-16.082 11.925-2.4758 1.4429-10.95 117.37 51.625-0.2442-15.648-112.95c22.574-4.5019 28.802-9.196 28.802-9.196 8.6494-6.5184 1.7545-13.838 1.7545-13.838v-0.0013z"/> <path d="m404.49 1207.1-85.387 126.31v0.0013l99.041-0.4699 50.264-110.87-63.918-14.975z"/> <path d="m638.08 861.34 1e-4 8.6e-4v-2.6e-4l-1e-4 -6e-4zm0.73095 4.396v3.7e-4 9.7e-4 -0.00134zm21.883 11.386-1.5e-4 0.0012 1.5e-4 -0.0012zm6.2284 4.13v5e-4 9.6e-4 -0.00146zm-0.6738 2.9471 0.0022 8.6e-4v2.3e-4l-0.0022-0.00109zm21.448 10.982 8e-4 4e-4 -5e-4 6e-4 -3e-4 -1e-3zm-0.0249 0.08314 3.3e-4 8.6e-4v-5e-4l-3.3e-4 -3.6e-4zm-34.658 2.4069v2.5e-4zm-0.00971-0.0466-0.0357 0.0611 2.4e-4 3e-4 -0.0013-0.00845c-1e-4 -0.00159-3e-4 -0.00315-3e-4 -0.00475v3.6e-4c-8e-4 -0.0221 0.01326-0.0409 0.03334-0.04726l3e-4 5e-4 0.00342-0.0018zm54.693 5.4328 0.01024 6.1e-4 -9.4e-4 3.6e-4c-9e-4 4e-4 -0.00187 0.0011-0.0027 0.0017v1.4e-4l-7e-4 3.6e-4h4e-4c-0.0021 0.0011-0.0042 0.0027-0.00674 0.0034v5e-4c-3e-4 -0.0028-5.6e-4 -0.00475-5.6e-4 -0.00707zm-0.0564-0.00473 0.04314 0.00376-9.4e-4 3.4e-4c-3e-3 0.0033-0.0065 0.00735-0.01035 0.012v2.3e-4c-0.01031-9.8e-4 -0.02065-0.00573-0.02865-0.01318l-0.0032-0.00315zm-83.998 13.292v2e-4l-3.3e-4 -2e-4v2e-4c0-2e-4 3e-5 -2e-4 3.3e-4 -2e-4zm136.94 17.946v2.6e-4l-4e-4 3.4e-4c4e-4 -3.4e-4 4e-4 -6e-4 4e-4 -6e-4zm-79.638 8.6564v5e-4l-1e-4 -5e-4 1e-4 0.0012zm-4.8104 1.904v0.0011-6.4e-4zm0.0272 0.01646 3.5e-4 9e-4v-7.6e-4l-3.5e-4 -1.4e-4zm96.125-1.0576 0.07612 0.0073v4e-4l-0.01032 0.0061 5.5e-4 2.4e-4c-0.0019 7.6e-4 -0.0037 0.00206-0.0057 0.00266-0.0056 0.0026-0.01163 0.00393-0.01804 0.0042-0.0119 3.4e-4 -0.02386-0.0039-0.03316-0.0125l-0.00945-0.0084zm17.483 1.709v3.5e-4l-1.7e-4 8.5e-4 1.7e-4 -0.0012zm0.04494-0.0087 0.00201 0.00734v4.9e-4c3.5e-4 0.01147-0.0036 0.02271-0.01111 0.03162l0.0091-0.03945zm-14.803-3.3519c0.01593-2.5e-4 0.03233 0.0049 0.04523 0.01586l7.3104 6.1982c0.01424 0.01184 0.02285 0.02906 0.0236 0.04737l0.13487 3.0786-3.1e-4 6e-4 -3e-4 3.6e-4 3e-4 8.4e-4 -0.02911 0.0359v2.4e-4c-0.01001-0.00854-0.01665-0.02064-0.01755-0.03479l-0.1348-3.0794c-2e-4 -0.0056-0.0028-0.01086-7e-3 -0.01415v9.5e-4l-7.3104-6.199c-0.00396-0.00355-0.00866-0.00488-0.01366-0.00488-0.0034 2.3e-4 -0.00636 0.00123-0.00953 0.00283v2e-4l-2.6396 1.6083v5e-4l-0.0355-0.0331v-5e-4l2.6506-1.6155c0.01015-0.00611 0.02145-0.00928 0.03272-0.00964zm-137.09-80.959c-0.0248 7.4e-4 -0.0472 0.0153-0.05796 0.0381-0.0116 0.02405-0.00744 0.0525 0.01036 0.07275l1.3439 1.5143v2.7e-4l-0.5757 3.076c-0.0053 0.02786 0.0079 0.05606 0.03254 0.0701 0.01096 0.0062 0.02296 0.0089 0.03486 0.0088 0.01525-5e-4 0.0302-0.00636 0.0421-0.0166l2.2657-1.9954 21.361 11.614v4.9e-4l-1.8482 1.5003c-0.01736 0.0139-0.0267 0.0359-0.0245 0.05796 2e-3 0.02224 0.0154 0.042 0.03485 0.05249l6.6216 3.5324-0.397 0.51c-0.0124 0.016-0.01685 0.0365-0.0124 0.05604 0.0044 0.01941 0.0175 0.03589 0.0356 0.04493l0.54455 0.26673-4.5e-4 2.3e-4c-0.785 1.0827-1.6703 2.2898-1.2347 2.6201 0.03636 0.02759 0.07971 0.04761 0.1289 0.06055 0.05921 0.01587 0.13141 0.02185 0.21552 0.01904 0.81567-0.02454 2.7427-0.86548 4.6316-1.6872l4.9e-4 1e-4 7.0601 3.4932 11.308 5.8054-6.4e-4 1e-4c-0.19106 0.2467-0.38123 0.4933-0.56416 0.7345-0.86254 1.137-1.6713 2.2755-1.2664 2.5823 0.01556 0.0121 0.0325 0.0222 0.0507 0.03123v2.7e-4c0.00154 2e-4 0.00294 8.3e-4 0.00435 0.0017l4.8e-4 2.3e-4 -1.3e-4 8.7e-4c0.0644 0.0288 0.1514 0.04076 0.258 0.0376 0.8161-0.0249 2.7883-0.9523 4.7069-1.8501l7.4e-4 1e-4 9.4285 4.8049v4.6e-4l2.7604 2.4734-9.1e-4 1.4e-4c-0.26284 0.41896-0.59034 0.93836-0.30444 1.1618v5e-4c1e-3 6e-4 0.00256 0.00144 0.00366 0.00266 0.12554 0.09524 0.36969 0.12134 0.6698 0.11204 0.32971-0.0101 0.72674-0.0627 1.1091-0.11265l6.6e-4 0.00109 1.3069 1.2445-8.5e-4 2.5e-4c-0.13975 0.1517-0.41995 0.4385-0.70315 0.729l-9.5e-4 1e-4 -27.586 10.726v2.5e-4l-1.9202-0.9295-16.074-19.39c-0.01326-0.01584-0.0332-0.02463-0.0532-0.0238-0.00755 2.7e-4 -0.0152 0.0016-0.0226 0.0048l-8.3317 3.3093c-0.02825 0.01124-0.0454 0.0404-0.04143 0.0703l3.3561 25.402v5e-4l-19.626-6.0748-2.3e-4 1.5e-4c-2.6666-1.0629-5.3483-2.1331-7.5426-2.2473-0.21575-0.01123-0.42695-0.01316-0.63379-0.00706-1.9017 0.0581-3.4394 0.81944-4.9639 1.574-0.02253 0.0111-0.03694 0.03384-0.03694 0.0592-1.2e-4 0.02514 0.0138 0.04784 0.03624 0.05957l25.987 13.264-3e-4 2.3e-4c-1.3219 1.1985-2.6414 2.4009-3.4518 3.4695-0.85073 1.1216-1.1761 2.1496-0.24593 2.8553 0.0786 0.05946 0.16524 0.11596 0.261 0.17026 2.2349 1.2614 9.5547 1.1619 16.835 1.0639l-3.5e-4 2e-4 13.253 7.7561c0.01093 0.0066 0.0233 0.00954 0.0357 0.0092 0.0075 0 0.0153-0.00185 0.02254-0.00454l4.9131-1.9446c0.018-0.00686 0.03194-0.0216 0.03835-0.0402 0.00635-0.0183 0.00421-0.03856-0.00555-0.05516l-3.7191-6.3379-3e-4 1.5e-4c6.234-0.5177 12.478-1.0416 19.676-2.6642 7.2339-1.6305 15.431-4.3712 23.624-7.1098l0.00116 3.5e-4c2.2782 0.18435 4.561 0.3689 6.8899 0.29825 0.75234-0.0232 1.5097-0.0724 2.2729-0.1574 3.1237-0.3468 6.3494-1.2846 9.5682-2.2212l0.00122 3.7e-4 10.07 3.5151-0.0013 2e-4c-0.30596 0.38234-0.6105 0.76393-0.8817 1.1215-0.65797 0.86765-1.2227 1.7107-0.87745 1.9726 0.02895 0.02187 0.06268 0.03833 0.10028 0.04993 0.05477 0.0166 0.1228 0.02307 0.20331 0.02064 0.83606-0.0255 2.999-1.0372 5.1203-2.0271l0.0014 8.4e-4 0.64195 0.59546h-0.00145c-0.25264 0.266-0.5038 0.5326-0.6646 0.74475-0.12356 0.16285-0.2692 0.38501-0.1277 0.49245 0.0293 0.0221 0.0653 0.03295 0.103 0.0377v2.5e-4c0.01906 0.00185 0.04054 0.00295 0.0641 0.00185 0.4227-0.0127 1.5891-0.4917 2.7277-0.95864l0.0011 2.4e-4 4.5841 3.9634-0.0015 3.5e-4c-0.11737 0.14245-0.237 0.28785-0.35144 0.42825-0.84356 1.0342-1.6965 2.1164-1.3301 2.4153 0.00237 0.00159 0.0046 0.00344 0.0068 0.00524 0.06783 0.0515 0.17666 0.07215 0.31856 0.068 0.67764-0.0209 2.1142-0.61206 3.4915-1.1741l0.00126 3e-4 6.006 4.8426-0.00134 4e-4c-0.7703 1.3257-1.6182 2.7682-1.1084 3.1788 0.00305 0.00234 0.0061 0.00466 0.0093 7e-3 0.1114 0.08506 0.285 0.11815 0.50504 0.11143 0.7707-0.02368 2.1154-0.53479 3.4131-1.0245l0.00125 1e-3 0.83855 0.76865c0.0131 0.01195 0.0301 0.01795 0.04713 0.01735 0.01127 0 0.02252-0.00344 0.03257-0.00954l2.6532-1.6166 7.2517 6.1482 0.1414 3.2274c9.7e-4 0.0277 0.0194 0.0516 0.046 0.06054 0.0072 0.00246 0.0151 0.0033 0.02253 0.00316 0.01937-5e-4 0.03754-0.0095 0.05007-0.02513l1.9021-2.3872v2.4e-4l5.4745-3.7397c0.0287-0.01966 0.03744-0.05796 0.0201-0.08836l-7.0157-12.244-0.00171 8.7e-4c2.6934-0.97865 5.3875-1.959 7.9904-3.14 2.6217-1.1892 5.1826-2.595 5.8577-5.5268 0.55717-2.4188-0.172-5.8791-2.5742-7.7009-0.49706-0.37706-1.0659-0.6837-1.7094-0.8956-0.9205-0.304-1.9938-0.4136-3.1823-0.37746-3.6206 0.11026-8.3056 1.5756-12.973 3.0373v1e-4l-4.1165-7.1107-0.00133 9.5e-4c1.0355-0.77941 2.0713-1.5592 2.9877-2.3466 0.92556-0.79556 1.7287-1.599 2.5292-2.4007l-0.00127 1.2e-4c9.0803-3.3185 18.163-6.6376 26.886-10.212 8.7253-3.5736 17.101-7.4055 22.035-11.192 4.9252-3.7803 6.4532-7.5458 5.0646-9.9808-0.30042-0.5271-0.7359-0.98757-1.2746-1.3961-1.9367-1.4685-5.2378-2.2852-8.5186-3.097l-2e-3 5e-4c-3.3947-1.7276-6.7936-3.4531-12.896-3.2682-2.4819 0.0757-5.4107 0.4673-8.9684 1.3037-12.288 2.8882-32.089 11.084-51.887 19.28v1e-4c-0.56873-0.712-1.1458-1.4286-1.9002-2.0007-0.984-0.7461-2.265-1.2438-4.2165-1.184-0.0129 2.7e-4 -0.0261 5e-4 -0.03947 0.00137-3.4922 0.11863-9.1387 2.0145-14.772 3.9056v6e-4l-77.105-27.58c-0.0075-0.00244-0.0151-0.00379-0.02294-0.00379l-6.848 0.05335v2.4e-4l-5.316-0.2334-0.00495 7.6e-4z"/> </g> <g fill="#302222"> <path d="m327.03 757.22q0.0438 9.2773 0.08776 18.555 312-1.4763 623.99-2.9532l0.00845 7.6e-4 -0.08816-18.555-624 2.9521z"/> <path d="m333.35 994.92q0.02509 5.2958 0.05022 10.591 309.4-1.4642 618.79-2.9284l0.00817 6e-4 -0.05003-10.59-618.8 2.9265z"/> <path d="m468.33 772.37 9.3417-0.04968q0.80958 150.94 1.619 301.88-4.6708 0.0257-9.3414 0.0508-0.8096-150.94-1.6193-301.88z"/> <path d="m647.2 766.43 9.3414-0.04956 1.6192 301.88-9.3418 0.0503-1.6188-301.88z"/> <path d="m827.92 773.04 4.6707-0.02526 4.6709-0.0247q0.80957 150.94 1.6189 301.88-4.6708 0.0257-9.3416 0.0509-0.80939-150.94-1.6189-301.88z"/> </g> <g> <path d="m689.57 931.83v4.8e-4 6.1e-4 -6.1e-4 -4.8e-4 4.8e-4 6.1e-4q0-6.1e-4 0-0.00109z"/> </g> <g fill="#302222"> <path d="m310.55 1057.6q0.20953 44.287 0.41907 88.573 320.94-1.5186 641.89-3.037l0.0082 7e-4 -0.4192-88.572-641.9 3.0361z"/> </g> <g> <path d="m98.107 724.13c-0.15434 8e-4 -0.30205 0.06287-0.41055 0.17249-0.10863 0.10965-0.16922 0.25775-0.1685 0.41229l2.3065 487.43q138.09-0.4938 276.19-0.9878-0.8732-244.16-1.7465-488.33l-276.17 1.3066z"/> </g> <g fill="#ffdcb1"> <path d="m765.94 833.31-0.31394 4.7079q-2.2436 14.229-13.164 22.765-10.996 8.5293-25.904 6.9273-14.229-2.2434-22.765-13.163-8.5295-10.996-6.9274-25.904 2.2435-14.229 13.164-22.765 10.996-8.5297 25.904-6.9276 14.229 2.2436 22.765 13.164 2.7352 3.5299 4.5072 7.6933l1.4895 4.2804q1.2281 4.4185 1.2447 9.2222z"/> </g> <g> <path d="m605.15 802c-1.4201 0.28746-2.9756 1.0652-3.9055 1.9783-0.67627 0.6591-1.8259 1.5891-2.2823 1.8765-0.1183 0.0847-0.72694-0.01687-1.3695-0.2028-1.0819-0.33824-1.2173-0.33824-2.0289-0.1014-0.6762 0.20286-0.94677 0.3889-1.1328 0.77757-0.152 0.27053-0.21967 0.65943-0.169 0.82873 0.0676 0.2196-0.15217 0.7267-0.727 1.5553-2.2994 3.4318-3.821 6.0864-4.3621 7.6082-0.47339 1.3524-0.89604 3.635-1.0651 5.6976-0.2029 2.4007-0.05076 4.328 0.59175 8.2167 0.23665 1.3861 0.50705 2.9923 0.59175 3.5502 0.0844 0.55811 0.2705 2.8745 0.40575 5.1229 0.28729 4.6494 0.20288 6.1204-0.52411 8.589-0.82844 2.8739-1.6569 3.956-3.0433 3.956-0.43964 0-1.2173-0.10134-1.7414-0.23669-2.0626-0.52415-2.3331-0.52415-2.8742 0.01695-0.67617 0.6763-1.1496 2.3838-1.5216 5.4441-0.16896 1.3694-0.38876 2.6372-0.49026 2.8403-0.1183 0.18591-0.4396 0.55786-0.7439 0.81126-1.0652 0.8794-6.3232 5.7655-8.4028 7.7774-4.4467 4.3281-6.4754 7.2698-10.195 14.709-2.4176 4.8186-3.77 9.3836-4.7675 16.112-0.52424 3.5336-0.79454 12.156-0.60864 20.069 0.0507 2.3331 0.01696 3.8714-0.11835 4.4801-0.57495 2.7726-0.72705 5.055-0.54115 8.707l0.0677 1.5215-1.082 2.0965c-2.2824 4.4805-2.4854 6.0526-1.2681 9.5524 0.2536 0.744 0.4058 1.5554 0.4058 2.2148 0 1.2511-0.2536 1.6737-1.9443 3.1615-1.4708 1.285-2.0626 2.029-2.2824 2.8238-0.23674 0.86204-0.21974 1.082 0.18596 2.1808 0.3213 0.82849 0.3551 1.2849 0.3382 3.4153l-0.0169 2.4516 0.82837 0.99744c1.1835 1.4201 1.2173 1.6569 0.40583 4.2437-0.5242 1.6566-0.7102 4.6323-0.3889 5.9849 0.1013 0.4734 0.5408 1.3694 0.94663 2.0119 0.42267 0.62574 0.79467 1.3188 0.86237 1.5384 0.1352 0.5243-0.017 2.1301-0.4396 4.8355-0.1859 1.2005-0.4904 3.7363-0.6931 5.63-0.45654 4.4297-0.87914 6.2894-2.8743 12.207-1.7246 5.1397-2.3501 7.6591-2.1304 8.5549 0.13523 0.5409 1.2342 1.2682 4.8523 3.2462 0.71005 0.3888 1.3863 0.8282 1.5047 0.9635 0.3889 0.47337 0.0675 1.4372-0.72697 2.2656-0.86223 0.8961-2.2655 3.1447-3.4658 5.5286-0.7779 1.5386-1.2849 2.942-2.2487 6.0864l-0.35517 1.1833 0.35507 0.7101c0.5072 0.9807 0.28745 1.3865-1.3356 2.5193-1.8429 1.3018-2.5361 1.9107-2.7051 2.3162-0.32123 0.8624 0.89604 1.826 2.6205 2.0458 0.47338 0.0676 1.099 0.1861 1.4202 0.2874 0.5072 0.1522 0.55796 0.22 0.47336 0.7102-0.13526 0.8622-1.3357 3.6856-3.0432 7.2023-0.87909 1.8091-2.2317 4.6663-2.9924 6.3405-0.7608 1.6737-1.623 3.5334-1.8936 4.142-0.6425 1.3863-3.804 8.1491-4.8691 10.398-0.4396 0.9298-1.8092 3.8212-3.0263 6.4248-3.0434 6.4244-4.5312 9.4338-4.937 9.9577-0.5241 0.6592-1.1666 0.5579-3.1953-0.5072-0.9805-0.5071-2.2318-1.1325-2.8064-1.403-1.471-0.6935-1.5555-0.9468-1.1497-3.7027 0.16894-1.285 0.3043-3.2123 0.30414-4.7677 0.0169-2.333-0.01684-2.7052-0.33814-3.3985-0.42255-0.8957-1.2003-1.5553-2.2315-1.8594-1.6909-0.4906-3.5845 0.8111-5.2244 3.584-2.2487 3.8208-2.6544 4.2434-3.635 3.8716-0.86224-0.338-3.0939-1.4877-4.4804-2.2992-0.69311-0.4057-1.2849-0.744-1.3187-0.744-0.05065 0-1.0144-0.524-2.1472-1.1667-1.1496-0.6254-2.8403-1.5383-3.7703-1.9952-0.9298-0.4564-2.2148-1.1327-2.8741-1.5213-2.3839-1.3864-4.2436-2.2487-4.8353-2.2487-0.32116 0-0.91303 0.1521-1.3187 0.3382-0.4058 0.186-0.9129 0.3382-1.1158 0.3382-0.21978 0-1.437-0.3889-2.7051-0.8453-3.838-1.4204-6.6783-1.6569-10.009-0.8455-2.9925 0.7103-5.5285 2.1471-8.7577 4.9369-1.5894 1.3861-6.9149 6.8135-8.4197 8.5885-1.2004 1.4202-3.8377 5.1907-4.0576 5.8159-0.06762 0.1692-0.45642 0.8117-0.86224 1.4372-1.0144 1.505-2.4683 4.1423-4.4973 8.1661-1.4707 2.9083-1.775 3.3987-2.3668 3.7873-0.91296 0.6087-1.8598 1.8935-2.7389 3.7027-0.6931 1.4542-0.72692 1.5895-0.67614 2.8911 0.03374 1.099-0.05078 1.64-0.40582 2.7052-0.23676 0.7268-0.55792 1.5555-0.72699 1.8428-0.54102 0.8791-2.6713 4.9367-5.4271 10.313-0.94677 1.8599-2.4684 4.7509-3.3476 6.4243-0.87909 1.6738-2.4178 4.5987-3.4152 6.5092-2.5699 4.9703-2.7897 5.2748-4.0238 5.7143-1.1328 0.4228-1.6231 0.9975-2.3332 2.6884-0.49034 1.217-0.49034 1.3863-0.0507 2.4342 0.3551 0.812 0.3551 0.8457 0.06768 1.8092-0.27063 0.8622-1.2174 2.7895-2.9925 6.1205-0.32124 0.6087-1.3018 2.4347-2.164 4.0576-0.86232 1.6232-1.995 3.7537-2.536 4.7341-0.52422 0.9805-1.285 2.3837-1.6907 3.1276-0.406 0.7436-1.0822 1.9613-1.5387 2.705-1.471 2.4683-2.1979 4.1928-2.3839 5.6131-0.20288 1.5891-0.52404 2.4515-2.0456 5.6299-2.9249 6.0868-3.4997 8.0307-3.4997 11.75-1.4e-4 2.6036 0.35492 4.3787 1.2003 6.1372 1.1158 2.3331 3.077 4.0747 5.9342 5.3425 1.2173 0.5409 1.4033 0.8454 1.1497 2.0458-0.30426 1.4708-0.52405 1.64-2.3837 1.7921-1.9613 0.169-2.6882 0.3719-3.804 1.0819-2.6036 1.6739-3.7871 4.0915-3.5505 7.2193 0.1184 1.7585 0.69317 2.9589 2.0287 4.2773 1.5555 1.556 3.6519 2.4519 5.6469 2.4518 1.7413 0 4.2435-1.116 5.7483-2.5868 1.2851-1.251 1.8766-2.333 2.553-4.6833 0.72698-2.4684 1.2004-3.2461 2.1641-3.5502 0.35503-0.1185 0.96367-0.389 1.3525-0.6091 0.84527-0.4902 0.98059-0.4902 1.7414-0.1014 1.268 0.6764 5.0382 2.6376 6.0019 3.1278 2.2656 1.1671 4.4636 2.5201 5.478 3.4158 1.3864 1.2175 2.5698 1.9779 4.3788 2.7724 2.4008 1.0652 2.9587 1.1497 4.7678 0.744 2.0964-0.4903 2.0288-0.5073 7.8616 2.0458 1.2173 0.5409 2.4346 1.0647 2.7051 1.2001 0.59166 0.2537 3.0432 1.2175 4.7847 1.8597 1.7245 0.643 1.8259 1.2006 0.45642 2.9591-1.2172 1.5723-1.3187 1.8935-1.4032 4.1083-0.06751 1.9444-0.06751 2.012 0.43969 3.0435 1.7751 3.5672 5.4609 5.1396 9.2988 3.9225 2.0964-0.6593 3.1784-1.5723 4.1253-3.4659 0.5409-1.0651 0.55786-1.1497 0.55786-3.2968v-2.1978l0.86224-1.1162c0.77765-0.9973 1.8259-2.7218 2.9755-4.8863 1.6399-3.0433 3.7701-6.9148 4.4803-8.1149 0.47345-0.7948 1.2512-2.198 1.7415-3.1279 0.49023-0.9297 1.0651-1.9613 1.268-2.2825 0.45653-0.7272 1.9442-3.4152 3.1276-5.664 0.49035-0.9298 1.1328-2.1131 1.4371-2.6203 0.72699-1.2344 1.4372-2.5701 3.4828-6.5603 0.94677-1.8258 1.9781-3.7869 2.2994-4.3449 0.32129-0.5577 0.65943-1.1666 0.77771-1.3525 0.10151-0.1859 1.3019-2.5022 2.6713-5.1566 1.3527-2.6541 3.2969-6.3737 4.2945-8.2842 0.99749-1.9105 2.7557-5.3087 3.9054-7.5571 1.1497-2.2489 2.7052-5.2917 3.466-6.7627 0.76075-1.4712 3.9561-7.8113 7.1008-14.084 3.1446-6.2727 6.1372-12.207 6.6444-13.187 0.50721-0.9809 1.4032-2.7729 2.0118-3.9733 0.5918-1.2172 2.4514-4.9369 4.1252-8.2845 4.193-8.3688 5.5118-11.412 6.0358-13.982 0.3551-1.7242 0.54105-7.0668 0.28745-8.2335-0.38885-1.8257-1.116-3.0094-2.925-4.751-1.3864-1.3525-1.657-1.7075-1.657-2.1303 0-0.6592 0.4397-1.9443 1.3188-3.8207 0.3719-0.7947 1.2174-2.6713 1.8599-4.1421 0.6593-1.4708 1.623-3.5844 2.1472-4.7001 0.5409-1.1159 1.1832-2.4855 1.437-3.0433 0.2536-0.5581 0.92983-1.9612 1.4878-3.1278 1.6061-3.3645 3.7532-7.9463 3.7532-8.0309 0-0.0338 0.3889-0.8622 0.8454-1.8599 0.4733-0.9972 0.8453-1.8255 0.8453-1.8596 0-0.0336 0.4226-0.9636 0.94674-2.0627 0.52416-1.0988 1.2343-2.6371 1.5894-3.4318 2.2486-5.0552 4.6662-9.8735 5.2242-10.449 0.6931-0.6764 0.9974-0.6764 1.6399-0.0171 0.91293 0.9638 1.8767 0.541 4.3283-1.9441 1.1495-1.1667 1.8258-1.5554 2.147-1.2343 0.3888 0.3889 0.1691 1.268-0.8453 3.2462-1.2173 2.4176-1.2511 2.8742-0.23666 4.4971 0.7608 1.2342 0.7439 1.6062-0.15214 3.7197-0.9467 2.2656-1.5891 4.531-2.3163 8.1827-1.1495 5.7992-1.3524 7.4562-1.5045 11.92-0.1184 3.7533-0.16915 4.2774-0.5749 5.5624-0.96376 3.111-1.1328 4.9706-0.67634 7.5402 0.13534 0.8285 0.27051 1.995 0.28744 2.587 0.03385 1.0314 0.0169 1.0989-0.5749 1.606-0.3211 0.3044-1.0819 0.8791-1.6737 1.3017-1.7244 1.2343-2.8911 2.4855-3.6012 3.8888-0.72707 1.454-0.96376 2.5527-0.96376 4.3957 0 0.7271-0.11834 1.8938-0.2536 2.6036-0.13524 0.7103-0.32124 1.9106-0.42264 2.6714-0.2536 1.8768-0.60855 2.5023-1.8089 3.2294-1.8091 1.0988-2.553 2.2147-3.3308 4.9536-0.524 1.8259-2.874 8.792-4.4127 13.086-1.8765 5.2412-2.2653 6.526-4.0406 13.187-1.0651 4.0242-2.4347 9.4004-3.3138 13.103-1.1499 4.8691-2.3163 9.0789-3.5675 12.934-1.0144 3.0771-1.2681 3.9564-2.3162 7.6928-1.1496 4.1253-2.1979 9.6878-2.5697 13.61-0.4735 5.0888-0.4565 4.9027-0.8454 5.3255-0.20296 0.2029-0.7101 0.4905-1.1327 0.6085-1.0822 0.3046-1.8259 1.0991-2.0797 2.2151-0.10138 0.4903-0.23658 1.8425-0.28744 3.0093-0.0675 1.5891-0.1858 2.4006-0.47324 3.297-0.42266 1.2848-1.1497 4.3618-1.454 6.2553-0.2367 1.5049-0.2536 5.8498 0 6.8474 0.1183 0.4904 0.1352 1.9272 0.06766 4.142-0.1184 3.8546-0.01686 4.2944 0.99754 4.6328 0.3043 0.1016 2.4177 0.338 4.7 0.5409 4.5986 0.3891 11.412 0.3894 12.461 5e-4 0.54101-0.2199 0.89605-0.8282 1.1494-2.0464 0.0677-0.321 0.2029-0.693 0.2875-0.8116 0.25366-0.3041 1.4539-0.2534 2.6881 0.1186 0.59186 0.1859 2.0796 0.6424 3.2799 0.9972 2.0458 0.6259 3.2462 1.0656 6.543 2.3673 1.8768 0.7609 3.4152 1.0144 7.084 1.2343 4.886 0.2873 10.533 0.0171 14.861-0.693 2.7897-0.4567 4.5648-0.913 9.3664-2.4013 2.9586-0.9129 2.9586-0.896 2.5696-3.0601-0.71005-3.8547-1.437-4.2943-7.7937-4.7671-8.4196-0.6426-12.021-1.5728-13.492-3.4835-0.60856-0.8112-1.0651-1.1834-5.0551-4.0575-1.2342-0.8963-1.8766-1.4878-2.0965-1.9274-0.23655-0.4564-0.52405-0.7098-0.92995-0.8452-0.4056-0.1353-0.6592-0.3721-0.87895-0.8117-0.21995-0.4734-0.38891-0.6256-0.7102-0.6253-0.47339 0-0.84525-0.4738-1.0144-1.302-0.11834-0.6087-0.64245-1.0989-1.9275-1.7752-1.0315-0.5582-1.7076-1.5217-1.826-2.5699-0.13517-1.065 0.28756-1.4202 2.4855-2.1132 3.9223-1.2342 4.7676-2.0289 4.7507-4.3452-0.0168-1.8934-0.33804-5.6974-0.6255-7.4894-0.13515-0.8793-0.25356-2.5192-0.2705-3.652v-2.0286l1.2679-3.6353c1.3357-3.8041 2.012-5.4608 3.5336-8.538 1.5556-3.1107 2.0628-4.5647 2.9419-8.2846 0.96363-4.0575 1.6231-5.613 3.1956-7.371 1.0142-1.1328 4.6493-6.0526 6.0865-8.2335 0.79454-1.2005 2.0625-3.4661 2.8571-5.0382 1.3188-2.6883 1.9952-4.1422 4.1761-9.113 0.4734-1.1159 1.1328-2.5698 1.4201-3.2124 2.5021-5.4439 3.8039-8.5041 4.7508-11.125 1.0651-2.9921 2.8572-8.3687 3.5673-10.685 0.40583-1.4031 1.099-3.6347 1.5048-4.9874 1.3017-4.2101 1.5553-5.0722 2.35-7.9464 1.3864-4.9537 2.9756-9.6537 3.5674-10.567 0.15215-0.2199 0.4057-0.4565 0.5748-0.5073 0.81154-0.2534 1.2511 0.3042 5.0553 6.4249 0.81154 1.3017 2.2146 3.4151 3.1108 4.7 0.89605 1.2848 1.6398 2.384 1.6398 2.4344 0 0.0508 0.25375 0.4058 0.5581 0.7948 0.8961 1.116 2.6206 3.8208 4.6831 7.3714 2.2996 3.9393 4.1422 6.7966 4.9199 7.6081 0.96369 1.0144 2.4684 2.0626 4.3451 3.0432 2.4515 1.268 2.4515 1.2848 2.5866 4.4464 0.15224 3.5336 0.5072 5.0551 1.9106 8.4705 0.33805 0.8286 1.0652 3.2631 1.623 5.4103 1.0483 4.1422 2.1811 7.743 3.4321 10.922 0.40588 1.0652 1.1159 2.9248 1.5386 4.1421 1.2342 3.466 2.1979 5.9343 4.2945 11.074 1.5048 3.7028 4.531 11.902 5.3763 14.625 0.23667 0.744 0.54107 1.6229 0.65931 1.9441 0.13531 0.3214 0.32136 0.896 0.40582 1.2851 0.10144 0.372 0.47344 1.5893 0.84544 2.7052 0.7607 2.2992 1.5553 5.1395 2.147 7.5911 1.1498 4.7169 1.7244 6.1198 3.4489 8.2839 1.5892 2.0122 1.978 2.9251 2.8743 6.7633 0.84534 3.7196 1.0313 4.2604 1.4708 4.4634 0.21978 0.1014 0.77774 0.1858 1.2342 0.1858 0.9975 0 0.94675-0.1013 1.099 2.6207 0.13514 2.3841 0.52406 5.2411 0.9637 6.8473 0.3718 1.3867 0.84527 2.4008 1.8428 3.99 0.45648 0.7272 0.65933 1.2172 0.65933 1.6736 0 0.6256 1.0482 4.0239 1.6063 5.1908 0.54107 1.116 1.2341 1.0144 5.3258-0.7103 0.42254-0.1857 1.9105-0.7099 3.2969-1.1834 3.8377-1.3018 4.5647-1.5893 7.3034-2.8911 1.1667-0.558 2.1304-1.116 2.2317-1.3016 0.2536-0.4909 0.2368-1.1503-0.0844-1.7416-0.1353-0.2875-0.2367-0.7609-0.2029-1.0484 0.0509-0.4901 0.11844-0.5579 0.72715-0.6595 1.5554-0.2533 5.2072-0.6423 7.05-0.7269 1.7922-0.0846 6.2048-0.6087 7.2361-0.8622 3.4828-0.8452 9.654-3.5669 14.557-6.4076 1.2512-0.7272 2.4515-1.454 2.6882-1.6232 0.23657-0.1521 1.0989-0.727 1.9273-1.251 4.159-2.7055 9.5692-7.2027 9.5692-7.9804 0-0.8622-1.623-3.2461-2.7557-4.0575-1.2512-0.9129-1.9783-1.116-3.5506-1.0315-1.4202 0.0847-2.5528 0.4399-6.9655 2.1644-4.6832 1.8263-5.7652 2.012-9.0454 1.7074-3.06-0.2873-8.5887-1.5893-9.4847-2.2316-0.33819-0.2365-0.67639-0.3381-1.0313-0.2873-0.45645 0.0674-0.54105 0.0167-0.81165-0.6256-0.4058-0.9301-0.8114-1.0994-1.0651-0.44-0.2198 0.575-0.7608 0.7949-1.1327 0.4399-0.1353-0.1353-0.23677-0.575-0.2536-0.9637 2e-4 -0.6257-0.0675-0.7609-0.4903-0.9637-0.62543-0.2874-0.99744-0.0845-1.1157 0.5919-0.08463 0.4395-0.15253 0.49-0.72717 0.4733-0.82849-0.0337-2.0964-0.8961-3.9561-2.6712-2.2992-2.1981-2.8066-3.2633-2.1472-4.5311 0.203-0.4058 0.25375-0.7778 0.1691-1.4708-0.1691-1.6402-0.4226-2.2489-1.2341-3.0097-0.9129-0.845-0.9129-0.93 0.06751-3.3308 0.55798-1.4032 0.60883-1.6906 0.62567-3.2292 0-1.9271-0.21979-2.6881-1.606-5.5117-0.45664-0.9298-0.82853-1.7244-0.82853-1.7752 0-0.0506-1.2509-2.5694-2.7556-5.6129-1.5216-3.0432-3.0094-6.1371-3.2968-6.881-0.7439-1.9612-2.1135-6.1374-2.6547-8.1155-0.71009-2.5867-1.1665-4.1591-2.0962-7.1004-1.5386-4.954-2.2318-6.6447-3.8888-9.4679-0.79461-1.3527-0.8454-1.8428-0.43955-4.4805 0.33823-2.1641 0.33805-6.2218 0-7.5237-0.15224-0.5577-0.54104-1.6568-0.8622-2.4344-0.5918-1.4032-0.60865-1.454-0.7608-4.7337-0.372-8.0649-2.1305-13.83-6.7293-21.996-1.1835-2.0796-1.7582-2.9756-3.1278-4.7172-0.86231-1.099-1.5553-2.2147-2.0287-3.2797-0.86231-1.8936-1.099-2.2487-2.9586-4.328-1.5724-1.7756-1.7077-2.0459-2.3162-4.3791-0.23675-0.9131-0.5581-2.0964-0.74395-2.6543-0.16915-0.5581-0.47351-1.623-0.67639-2.3672-0.20286-0.7439-0.94686-2.5697-1.64-4.0405-1.1664-2.4344-2.9586-7.2528-3.7703-10.043-0.1691-0.5918-0.5409-1.4035-0.8284-1.7754-0.93-1.2342-1.0482-1.6568-0.93-3.2968 0.1016-1.3018 0.06777-1.5724-0.2366-2.1472-0.338-0.6932-2.5023-2.9927-3.2462-3.4829-0.38892-0.2537-0.40582-0.3551-0.40582-2.1981l-0.01691-1.9273-0.62554-0.879c-0.33814-0.4903-0.74385-1.2513-0.913-1.6908-0.1521-0.4564-0.50705-1.3524-0.7776-1.9949-0.7101-1.7414-0.7439-2.4008-0.23684-4.4804 0.25374-0.98056 0.52424-2.6714 0.60874-3.7703 0.1691-2.367-0.0508-6.6782-0.4227-8.1492-0.5072-1.9781-2.3331-5.1397-4.7508-8.2674-1.2172-1.5385-1.2172-1.8262 0.1183-3.4323 2.0965-2.536 2.9419-4.4632 2.8234-6.5259-0.05065-1.0483-0.1859-1.4878-0.9637-3.1109-1.2171-2.5697-1.1158-2.908 1.2512-4.3282 2.9755-1.7752 3.8379-3.415 3.3646-6.4076-0.11841-0.77746-0.33819-1.9443-0.47351-2.5867-0.21964-0.94678-0.27044-2.4685-0.27044-7.7772 0-8.7748-0.3212-15.842-1.0312-22.655-0.18595-1.7751-0.43952-4.3619-0.57489-5.7483-0.1352-1.4033-0.32129-3.1108-0.40571-3.8042-0.08465-0.693-0.20282-1.809-0.27069-2.4514-0.11826-1.4034-0.50702-4.5311-0.84521-7.0163-0.43955-3.0941-0.60875-4.8861-0.76085-8.4536-0.3043-6.5597-0.81136-9.2649-2.9588-15.639-1.2681-3.7702-2.8402-8.9439-3.2123-10.533-0.33806-1.437-0.67626-2.333-1.9274-5.1227-1.1328-2.5699-1.3018-3.2123-1.0483-4.1422 0.27046-1.0315 1.0651-1.8262 3.1615-3.1956 1.8092-1.2003 1.9274-1.3018 1.9274-1.8258 0-0.74375-0.98065-1.843-4.0408-4.4973-1.3016-1.1326-2.4006-2.1809-2.4512-2.3162-0.3044-0.79467-0.11825-1.0651 3.043-4.2269 1.7415-1.7245 3.4829-3.3981 3.9056-3.7192 0.99745-0.76086 1.7414-0.76086 4.6494 0.05066 2.8571 0.77759 4.7 0.86218 5.8836 0.25344 1.9442-1.0144 2.3669-2.0625 1.8596-4.6155-0.2704-1.3694-0.18586-1.7075 0.6423-2.7219 0.558-0.65945 0.6765-0.9639 0.7779-1.8428 0.1183-0.96386 0.1859-1.1161 0.86244-1.7414 0.76062-0.72705 1.0988-1.5046 1.4201-3.3814 0.10125-0.55786 0.18585-1.0315 0.18585-1.0483 0-0.01686 0.1183-0.16906 0.2705-0.30432 0.18604-0.18594 0.5749-0.27039 1.3018-0.27064 0.57514 1.3e-4 1.3528-0.0842 1.7248-0.1858 0.8283-0.2367 1.7751-1.1495 1.7751-1.7412 0-0.65954-0.47326-1.9276-1.1835-3.1449-0.33819-0.6083-1.0312-1.8596-1.5046-2.7896-0.49036-0.9298-1.0315-1.9613-1.2006-2.2826-0.524-0.92956-0.43954-1.3353 0.60886-2.6372 0.91294-1.1498 0.92994-1.1835 0.86234-2.0964-0.0339-0.50706-0.1522-1.3524-0.2535-1.8595-0.1185-0.50733-0.32137-1.8432-0.4734-2.9588-0.20295-1.4203-0.45673-2.4856-0.87946-3.5508-0.6424-1.6229-0.87909-3.1445-0.55794-3.5333 0.1015-0.1184 0.55794-0.3214 0.9975-0.4398 1.691-0.47327 3.0434-1.3693 3.6521-2.4344 1.1666-2.029 0.37196-5.3764-1.6566-6.9656-1.5048-1.1834-2.4518-1.657-3.1959-1.6061-0.37184 0.01696-0.82834-0.0847-1.065-0.2367-0.21993-0.1354-0.52417-0.2538-0.69317-0.2538-0.16916 0-0.64256-0.2367-1.0652-0.5072-0.4228-0.2705-0.98074-0.5073-1.2511-0.5073-0.28744 0-0.65945-0.1521-0.8454-0.3212-0.60867-0.5749-2.3164-1.3696-2.9081-1.3696-0.3043 0-1.623-0.33814-2.8909-0.7438-7.5066-2.3838-12.41-3.1954-15.622-2.553zm-91.72 267.48c-0.0168 2.1134-0.9297 6.4753-1.3694 6.6104-0.4396 0.1522-0.89602-0.6084-0.89602-1.4369 0-0.93 1.4032-5.7821 1.7414-5.9849 0.3889-0.2537 0.541-0.0171 0.524 0.8114zm-96.808 133.04c0.03381 0.5578-0.03381 0.7608-0.37201 1.082-0.54101 0.5072-0.77771 0.3384-0.67627-0.4564 0.18593-1.302 0.23676-1.4035 0.62555-1.3528 0.30426 0.0338 0.38886 0.1692 0.42273 0.7272z"/> </g> <g fill="#2f4165"> <path d="m466.32 1241v1e-4l-1.3e-4 4e-4 1.3e-4 -5e-4"/> </g> </svg>